HIERARCHY
ROOT joint_Root
{
	OFFSET 0.0 0.0 0.0
	CHANNELS 6 Xposition Yposition Zposition Zrotation Xrotation Yrotation 
	JOINT Hips
	{
		OFFSET -0.726466 93.3139 -2.00062
		CHANNELS 6 Xposition Yposition Zposition Zrotation Xrotation Yrotation 
		JOINT Spine
		{
			OFFSET 15.7357 0.0 0.0
			CHANNELS 6 Xposition Yposition Zposition Zrotation Xrotation Yrotation 
			JOINT Chest
			{
				OFFSET 8.98455 -0.406207 0.0
				CHANNELS 6 Xposition Yposition Zposition Zrotation Xrotation Yrotation 
				JOINT Neck
				{
					OFFSET 16.3773 0.0 0.0
					CHANNELS 6 Xposition Yposition Zposition Zrotation Xrotation Yrotation 
					JOINT Head
					{
						OFFSET 6.45672 0.0 0.0
						CHANNELS 6 Xposition Yposition Zposition Zrotation Xrotation Yrotation 
						End Site
						{
							OFFSET 0.0 0.0 0.0
						}
					}
				}
				JOINT Shoulder_L
				{
					OFFSET 12.9942 -0.242716 4.98039
					CHANNELS 6 Xposition Yposition Zposition Zrotation Xrotation Yrotation 
					JOINT UpperArm_L
					{
						OFFSET 5.34809 0.0 0.0
						CHANNELS 6 Xposition Yposition Zposition Zrotation Xrotation Yrotation 
						JOINT LowerArm_L
						{
							OFFSET 24.3286 1.87007e-05 0.0
							CHANNELS 6 Xposition Yposition Zposition Zrotation Xrotation Yrotation 
							JOINT Hand_L
							{
								OFFSET 22.2916 0.0 0.0
								CHANNELS 6 Xposition Yposition Zposition Zrotation Xrotation Yrotation 
								End Site
								{
									OFFSET 0.0 0.0 0.0
								}
							}
						}
					}
				}
				JOINT Shoulder_R
				{
					OFFSET 12.9945 -0.242716 -4.98039
					CHANNELS 6 Xposition Yposition Zposition Zrotation Xrotation Yrotation 
					JOINT UpperArm_R
					{
						OFFSET -5.34813 0.0 0.0
						CHANNELS 6 Xposition Yposition Zposition Zrotation Xrotation Yrotation 
						JOINT LowerArm_R
						{
							OFFSET -24.3289 0.000322201 0.0
							CHANNELS 6 Xposition Yposition Zposition Zrotation Xrotation Yrotation 
							JOINT Hand_R
							{
								OFFSET -22.2915 -0.000108084 0.0
								CHANNELS 6 Xposition Yposition Zposition Zrotation Xrotation Yrotation 
								End Site
								{
									OFFSET 0.0 0.0 0.0
								}
							}
						}
					}
				}
			}
		}
		JOINT UpperLeg_L
		{
			OFFSET -2.19248 -6.46944 0.0
			CHANNELS 6 Xposition Yposition Zposition Zrotation Xrotation Yrotation 
			JOINT LowerLeg_L
			{
				OFFSET 39.0811 0.0 -1.23785e-05
				CHANNELS 6 Xposition Yposition Zposition Zrotation Xrotation Yrotation 
				JOINT Foot_L
				{
					OFFSET 40.9854 0.0 -1.26872e-05
					CHANNELS 6 Xposition Yposition Zposition Zrotation Xrotation Yrotation 
					JOINT Toes_L
					{
						OFFSET 11.7543 0.0 0.0
						CHANNELS 6 Xposition Yposition Zposition Zrotation Xrotation Yrotation 
						End Site
						{
							OFFSET 0.0 0.0 0.0
						}
					}
				}
			}
		}
		JOINT UpperLeg_R
		{
			OFFSET -2.19251 6.46944 0.0
			CHANNELS 6 Xposition Yposition Zposition Zrotation Xrotation Yrotation 
			JOINT LowerLeg_R
			{
				OFFSET -39.0811 -0.00228153 -0.0401928
				CHANNELS 6 Xposition Yposition Zposition Zrotation Xrotation Yrotation 
				JOINT Foot_R
				{
					OFFSET -40.9854 0.0 0.0
					CHANNELS 6 Xposition Yposition Zposition Zrotation Xrotation Yrotation 
					JOINT Toes_R
					{
						OFFSET -11.7543 0.0 0.0
						CHANNELS 6 Xposition Yposition Zposition Zrotation Xrotation Yrotation 
						End Site
						{
							OFFSET 0.0 0.0 0.0
						}
					}
				}
			}
		}
	}
}
MOTION
Frames:	6
Frame Time:	0.0333333
0.000000 0.000000 0.000000 0.000000 0.000000 -0.000000 -0.287076 93.243400 -1.480490 89.001100 -2.701210 0.369950 15.735700 0.000005 -0.000001 99.162100 88.022500 -99.069900 8.984550 -0.406207 -0.000000 -3.862030 0.620018 0.205384 16.377300 -0.000001 -0.000001 3.233050 -2.074350 3.169370 6.456720 -0.000001 -0.000000 5.331950 -1.230120 -3.026640 12.994200 -0.242716 4.980390 -87.046300 -9.819980 -73.167900 5.348090 -0.000007 -0.000001 -82.854900 -31.697000 -95.239000 24.328600 0.000019 0.000005 22.829100 3.715870 -81.247700 22.291600 -0.000001 0.000005 23.247400 5.595010 -11.048400 12.994500 -0.242716 -4.980390 90.695800 -2.503190 -74.459300 -5.348130 -0.000001 -0.000004 -73.272500 -30.995200 -103.732000 -24.328900 0.000322 -0.000009 23.261900 8.869260 -70.270400 -22.291500 -0.000108 -0.000004 25.923800 5.398610 -2.892440 -2.192480 -6.469440 -0.000000 -177.071000 -8.937190 -3.192860 39.081100 -0.000007 -0.000012 -0.044056 0.167032 14.775600 40.985400 -0.000006 -0.000013 -0.119663 4.527590 -61.378400 11.754300 -0.000000 0.000003 -0.000002 -0.000034 -16.578800 -2.192510 6.469440 -0.000001 179.596000 11.368300 178.719000 -39.081100 -0.002282 -0.040193 -0.017060 0.093945 12.248700 -40.985400 0.000008 0.000006 2.737380 7.347490 -61.163500 -11.754300 -0.000006 -0.000006 -0.005987 -0.070718 -19.451200
0.000000 0.000000 0.000000 0.000000 0.000000 -0.000000 -0.306071 93.239200 -1.459330 88.994600 -2.793630 0.366013 15.735700 0.000005 -0.000001 99.464600 88.016400 -99.373500 8.984550 -0.406207 -0.000000 -3.853450 0.642718 0.203782 16.377300 -0.000001 -0.000001 3.200580 -2.079180 3.187410 6.456720 -0.000001 -0.000000 5.356190 -1.241890 -3.024160 12.994200 -0.242716 4.980390 -87.060700 -9.705100 -73.060300 5.348090 -0.000007 -0.000001 -82.793800 -31.704200 -95.322000 24.328600 0.000019 0.000005 22.635400 3.746200 -81.094800 22.291600 -0.000001 0.000005 23.226400 5.595670 -11.086900 12.994500 -0.242716 -4.980390 90.674700 -2.417260 -74.399900 -5.348130 -0.000001 -0.000004 -73.055900 -30.994800 -103.668000 -24.328900 0.000322 -0.000009 23.238100 8.853160 -70.282400 -22.291500 -0.000108 -0.000004 25.830600 5.397790 -2.865970 -2.192480 -6.469440 -0.000000 -177.048000 -8.975560 -3.175440 39.081100 -0.000007 -0.000012 -0.044737 0.169365 14.796300 40.985400 -0.000006 -0.000013 -0.137575 4.501900 -61.414100 11.754300 -0.000000 0.000003 -0.000002 -0.000026 -16.578500 -2.192510 6.469440 -0.000001 179.609000 11.393200 178.707000 -39.081100 -0.002282 -0.040193 -0.017522 0.095863 12.274600 -40.985400 0.000008 0.000006 2.719280 7.419710 -61.179700 -11.754300 -0.000006 -0.000006 -0.005951 -0.070391 -19.437900
0.000000 0.000000 0.000000 0.000000 0.000000 -0.000000 -0.315069 93.238600 -1.447090 88.965400 -2.842620 0.329289 15.735700 0.000005 -0.000001 99.609100 88.014800 -99.502600 8.984550 -0.406207 -0.000000 -3.852040 0.651558 0.234996 16.377300 -0.000001 -0.000001 3.234470 -2.047380 3.180270 6.456720 -0.000001 -0.000000 5.285500 -1.258800 -3.030120 12.994200 -0.242716 4.980390 -87.067100 -9.620210 -72.955500 5.348090 -0.000007 -0.000001 -82.693600 -31.776800 -95.309000 24.328600 0.000019 0.000005 22.579100 3.783060 -80.984200 22.291600 -0.000001 0.000005 23.067500 5.594190 -11.002600 12.994500 -0.242716 -4.980390 90.655600 -2.336500 -74.322300 -5.348130 -0.000001 -0.000004 -72.661500 -31.169100 -103.562000 -24.328900 0.000322 -0.000009 23.232700 8.888690 -70.205300 -22.291500 -0.000108 -0.000004 26.002800 5.399980 -2.936930 -2.192480 -6.469440 -0.000000 -177.020000 -9.002740 -3.221140 39.081100 -0.000007 -0.000012 -0.044665 0.168670 14.831800 40.985400 -0.000006 -0.000013 -0.144420 4.479360 -61.436500 11.754300 -0.000000 0.000003 -0.000002 -0.000027 -16.578500 -2.192510 6.469440 -0.000001 179.653000 11.390100 178.693000 -39.081100 -0.002282 -0.040193 -0.016456 0.091208 12.242800 -40.985400 0.000008 0.000006 2.758480 7.475370 -61.177500 -11.754300 -0.000006 -0.000006 -0.005978 -0.070634 -19.447800
0.000000 0.000000 0.000000 0.000000 0.000000 -0.000000 -0.319659 93.241600 -1.430970 88.963400 -2.905570 0.348942 15.735700 0.000005 -0.000001 99.974900 88.000600 -99.864000 8.984550 -0.406207 -0.000000 -3.828470 0.681004 0.244661 16.377300 -0.000001 -0.000001 3.303000 -2.033750 3.170230 6.456720 -0.000001 -0.000000 5.228430 -1.213270 -3.044650 12.994200 -0.242716 4.980390 -87.074600 -9.552100 -72.883900 5.348090 -0.000007 -0.000001 -82.551600 -31.955300 -95.102100 24.328600 0.000019 0.000005 22.609100 3.754480 -81.064100 22.291600 -0.000001 0.000005 22.755300 5.593440 -10.958000 12.994500 -0.242716 -4.980390 90.634400 -2.243540 -74.207100 -5.348130 -0.000001 -0.000004 -72.213800 -31.401400 -103.315000 -24.328900 0.000322 -0.000009 23.082300 8.833190 -70.186200 -22.291500 -0.000108 -0.000004 25.972800 5.402190 -3.009010 -2.192480 -6.469440 -0.000000 -177.009000 -9.022510 -3.143540 39.081100 -0.000007 -0.000012 -0.044583 0.169059 14.773000 40.985400 -0.000006 -0.000013 -0.158447 4.434060 -61.431400 11.754300 -0.000000 0.000003 -0.000003 -0.000042 -16.579100 -2.192510 6.469440 -0.000001 179.660000 11.341500 178.729000 -39.081100 -0.002282 -0.040193 -0.015736 0.088051 12.220900 -40.985400 0.000008 0.000006 2.831970 7.469150 -61.183100 -11.754300 -0.000006 -0.000006 -0.005900 -0.069924 -19.418800
0.000000 0.000000 0.000000 0.000000 0.000000 -0.000000 -0.322724 93.245400 -1.431140 88.962300 -2.909300 0.302565 15.735700 0.000005 -0.000001 99.228300 88.000400 -99.099800 8.984550 -0.406207 -0.000000 -3.819340 0.627972 0.278046 16.377300 -0.000001 -0.000001 3.305340 -1.994450 3.151000 6.456720 -0.000001 -0.000000 5.253890 -1.131990 -3.124690 12.994200 -0.242716 4.980390 -87.114000 -9.367280 -72.790600 5.348090 -0.000007 -0.000001 -82.282200 -32.222800 -94.529200 24.328600 0.000019 0.000005 22.623300 3.503920 -81.656700 22.291600 -0.000001 0.000005 22.249400 5.585770 -10.522200 12.994500 -0.242716 -4.980390 90.615600 -2.160330 -74.089500 -5.348130 -0.000001 -0.000004 -71.547700 -31.687800 -102.695000 -24.328900 0.000322 -0.000009 22.897900 8.604590 -70.496000 -22.291500 -0.000108 -0.000004 25.906200 5.396520 -2.824690 -2.192480 -6.469440 -0.000000 -177.012000 -9.034480 -3.183030 39.081100 -0.000007 -0.000012 -0.044708 0.169926 14.740400 40.985400 -0.000006 -0.000013 -0.161584 4.448070 -61.405400 11.754300 -0.000000 0.000003 -0.000002 -0.000027 -16.578500 -2.192510 6.469440 -0.000001 179.682000 11.326900 178.693000 -39.081100 -0.002282 -0.040193 -0.014982 0.084714 12.201100 -40.985400 0.000008 0.000006 2.927870 7.469550 -61.191100 -11.754300 -0.000006 -0.000006 -0.005986 -0.070711 -19.450900
0.000000 0.000000 0.000000 0.000000 0.000000 -0.000000 -0.320779 93.243200 -1.424870 88.959900 -2.910400 0.278341 15.735700 0.000005 -0.000001 98.614800 87.991200 -98.478500 8.984550 -0.406207 -0.000000 -3.794610 0.587679 0.292198 16.377300 -0.000001 -0.000001 3.153510 -1.987980 3.138990 6.456720 -0.000001 -0.000000 5.467070 -1.078700 -3.104190 12.994200 -0.242716 4.980390 -87.192400 -9.049050 -72.682100 5.348090 -0.000007 -0.000001 -81.757300 -32.533500 -93.311000 24.328600 0.000019 0.000005 21.625800 2.742370 -83.119800 22.291600 -0.000001 0.000005 20.949700 5.574420 -9.908370 12.994500 -0.242716 -4.980390 90.551400 -1.920180 -73.974900 -5.348130 -0.000001 -0.000004 -70.226000 -32.298700 -101.257000 -24.328900 0.000322 -0.000009 22.465200 7.995460 -71.409600 -22.291500 -0.000108 -0.000004 25.609900 5.386800 -2.511760 -2.192480 -6.469440 -0.000000 -177.015000 -9.027960 -3.200970 39.081100 -0.000007 -0.000012 -0.044532 0.169078 14.755300 40.985400 -0.000006 -0.000013 -0.161413 4.429950 -61.426800 11.754300 -0.000000 0.000003 -0.000002 -0.000033 -16.578800 -2.192510 6.469440 -0.000001 179.691000 11.288800 178.662000 -39.081100 -0.002282 -0.040193 -0.015028 0.084788 12.220200 -40.985400 0.000008 0.000006 2.916880 7.419190 -61.200700 -11.754300 -0.000006 -0.000006 -0.006084 -0.071600 -19.487200
